<svg width="110" height="58" viewBox="0 0 110 58" fill="none" xmlns="http://www.w3.org/2000/svg">
<path fill-rule="evenodd" clip-rule="evenodd" d="M27.5 0L0 6.85455V58L27.5 51.4091L55 58L82.5 51.4091L110 58V6.85455L82.5 0L55 6.85455L27.5 0Z" fill="#2DC5FA"/>
<path d="M15.8372 35H13.4934V23.625H15.8372V35ZM22.5478 30.8359H20.6806V35H18.3369V23.625H22.5634C23.9072 23.625 24.9436 23.9245 25.6728 24.5234C26.402 25.1224 26.7666 25.9688 26.7666 27.0625C26.7666 27.8385 26.5973 28.487 26.2588 29.0078C25.9254 29.5234 25.4176 29.9349 24.7353 30.2422L27.1963 34.8906V35H24.6806L22.5478 30.8359ZM20.6806 28.9375H22.5713C23.1598 28.9375 23.6155 28.7891 23.9384 28.4922C24.2614 28.1901 24.4228 27.776 24.4228 27.25C24.4228 26.7135 24.2692 26.2917 23.9619 25.9844C23.6598 25.6771 23.1936 25.5234 22.5634 25.5234H20.6806V28.9375ZM38.2194 29.5703C38.2194 30.6901 38.0215 31.6719 37.6256 32.5156C37.2298 33.3594 36.6621 34.0104 35.9225 34.4688C35.1881 34.9271 34.3444 35.1562 33.3913 35.1562C32.4485 35.1562 31.6074 34.9297 30.8678 34.4766C30.1282 34.0234 29.5553 33.3776 29.1491 32.5391C28.7428 31.6953 28.5371 30.7266 28.5319 29.6328V29.0703C28.5319 27.9505 28.7324 26.9661 29.1334 26.1172C29.5397 25.263 30.11 24.6094 30.8444 24.1562C31.584 23.6979 32.4277 23.4688 33.3756 23.4688C34.3235 23.4688 35.1647 23.6979 35.8991 24.1562C36.6386 24.6094 37.209 25.263 37.61 26.1172C38.0163 26.9661 38.2194 27.9479 38.2194 29.0625V29.5703ZM35.8444 29.0547C35.8444 27.862 35.6308 26.9557 35.2038 26.3359C34.7767 25.7161 34.1673 25.4062 33.3756 25.4062C32.5892 25.4062 31.9824 25.7135 31.5553 26.3281C31.1282 26.9375 30.9121 27.8333 30.9069 29.0156V29.5703C30.9069 30.7318 31.1204 31.6328 31.5475 32.2734C31.9746 32.9141 32.5892 33.2344 33.3913 33.2344C34.1777 33.2344 34.7819 32.9271 35.2038 32.3125C35.6256 31.6927 35.8392 30.7917 35.8444 29.6094V29.0547ZM49.4925 35H47.1488L42.5863 27.5156V35H40.2425V23.625H42.5863L47.1566 31.125V23.625H49.4925V35ZM56.5856 35V23.625H59.945C61.1637 23.625 62.0882 23.8776 62.7184 24.3828C63.3486 24.8828 63.6637 25.6224 63.6637 26.6016C63.6637 27.1901 63.5023 27.7031 63.1794 28.1406C62.8617 28.5729 62.4242 28.8828 61.8669 29.0703C62.5283 29.2161 63.0596 29.5417 63.4606 30.0469C63.8669 30.5521 64.07 31.1354 64.07 31.7969C64.07 32.8021 63.7445 33.5885 63.0934 34.1562C62.4476 34.7188 61.5466 35 60.3903 35H56.5856ZM57.5466 29.5312V34.1875H60.4294C61.2523 34.1875 61.9033 33.9792 62.3825 33.5625C62.8669 33.1406 63.1091 32.5573 63.1091 31.8125C63.1091 31.1094 62.8773 30.5547 62.4137 30.1484C61.9554 29.737 61.32 29.5312 60.5075 29.5312H57.5466ZM57.5466 28.7266H60.1716C60.9736 28.7109 61.5934 28.5234 62.0309 28.1641C62.4736 27.7995 62.695 27.2708 62.695 26.5781C62.695 25.849 62.4658 25.3125 62.0075 24.9688C61.5544 24.6198 60.8669 24.4453 59.945 24.4453H57.5466V28.7266ZM75.1244 29.9297C75.1244 30.9766 74.9421 31.8958 74.5775 32.6875C74.2181 33.4792 73.7025 34.0885 73.0306 34.5156C72.3587 34.9427 71.5827 35.1562 70.7025 35.1562C69.3744 35.1562 68.3015 34.6823 67.4837 33.7344C66.666 32.7812 66.2572 31.4974 66.2572 29.8828V28.7109C66.2572 27.6745 66.4395 26.7578 66.8041 25.9609C67.1739 25.1589 67.6947 24.5443 68.3666 24.1172C69.0384 23.6849 69.8119 23.4688 70.6869 23.4688C71.5619 23.4688 72.3327 23.6797 72.9994 24.1016C73.6712 24.5234 74.1895 25.1198 74.5541 25.8906C74.9186 26.6615 75.1087 27.5547 75.1244 28.5703V29.9297ZM74.1634 28.6953C74.1634 27.3255 73.8535 26.2526 73.2337 25.4766C72.614 24.7005 71.765 24.3125 70.6869 24.3125C69.6296 24.3125 68.7858 24.7031 68.1556 25.4844C67.5306 26.2604 67.2181 27.3464 67.2181 28.7422V29.9297C67.2181 31.2786 67.5306 32.349 68.1556 33.1406C68.7806 33.9271 69.6296 34.3203 70.7025 34.3203C71.791 34.3203 72.64 33.9323 73.2494 33.1562C73.8587 32.375 74.1634 31.2891 74.1634 29.8984V28.6953ZM86.2725 29.9297C86.2725 30.9766 86.0902 31.8958 85.7256 32.6875C85.3662 33.4792 84.8506 34.0885 84.1787 34.5156C83.5069 34.9427 82.7308 35.1562 81.8506 35.1562C80.5225 35.1562 79.4496 34.6823 78.6319 33.7344C77.8142 32.7812 77.4053 31.4974 77.4053 29.8828V28.7109C77.4053 27.6745 77.5876 26.7578 77.9522 25.9609C78.322 25.1589 78.8428 24.5443 79.5147 24.1172C80.1866 23.6849 80.96 23.4688 81.835 23.4688C82.71 23.4688 83.4808 23.6797 84.1475 24.1016C84.8194 24.5234 85.3376 25.1198 85.7022 25.8906C86.0668 26.6615 86.2569 27.5547 86.2725 28.5703V29.9297ZM85.3116 28.6953C85.3116 27.3255 85.0017 26.2526 84.3819 25.4766C83.7621 24.7005 82.9131 24.3125 81.835 24.3125C80.7777 24.3125 79.934 24.7031 79.3037 25.4844C78.6787 26.2604 78.3662 27.3464 78.3662 28.7422V29.9297C78.3662 31.2786 78.6787 32.349 79.3037 33.1406C79.9287 33.9271 80.7777 34.3203 81.8506 34.3203C82.9392 34.3203 83.7881 33.9323 84.3975 33.1562C85.0069 32.375 85.3116 31.2891 85.3116 29.8984V28.6953ZM91.5769 29.3516L89.9753 30.9297V35H89.0144V23.625H89.9753V29.7578L95.8034 23.625H97.0144L92.2487 28.6875L97.3816 35H96.2097L91.5769 29.3516Z" fill="white"/>
</svg>
