<svg width="1280" height="800" viewBox="0 0 1280 800" fill="none" xmlns="http://www.w3.org/2000/svg">
<path d="M446.98 569.56C423.708 522.855 451.236 475.729 508.465 464.3L644.366 437.159C647.895 436.454 651.454 435.902 655.032 435.496L937.831 379.019L938.1 379.559L938.11 379.551L1044.37 468.355L1044.24 468.452L1100.41 578.812L1100.74 578.93L1100.62 579.223L1100.77 579.521L1100.46 579.585L1027.12 752.488L1026.56 752.289L1026.74 752.632L860.588 792.992L860.507 792.843L860.453 793.019L677.189 780.098C655.981 778.603 635.004 771.53 617.734 760.049L522.101 692.692L503.446 674.534C489.544 656.915 489.872 655.643 481.614 639.07L446.98 569.56Z" fill="#F8D37E"/>
<path d="M1003.14 -53.6143L725.311 5.28694L610.362 147.252L578.544 240.386L1079.99 660.972L1117.97 652.48C1139.56 648.733 1149.1 643.166 1156.49 627.819L1309.11 311.135C1316.54 295.724 1310.3 280.663 1302.07 266.202L1118.42 39.7295L1003.14 -53.6143Z" fill="#1F2433"/>
<path d="M514.56 121.326C541.109 151.37 530.013 191.795 489.775 211.619L394.222 258.694C391.741 259.916 389.208 261.031 386.631 262.041L187.794 360L187.487 359.653L187.48 359.66L90.9407 314.825L91.0227 314.726L27.4085 243.968L27.1375 243.946L27.1717 243.704L27 243.513L27.2139 243.406L47.3877 100.568L47.8457 100.604L47.6432 100.385L163.039 37.5064L163.129 37.6006L163.134 37.4593L301.811 10.7246C317.86 7.63063 334.843 8.72207 349.948 13.8182L434.339 44.8457L451.796 54.6218C465.617 64.9411 465.626 65.9498 475.047 76.6108L514.56 121.326Z" fill="#F8D37E"/>
<path d="M201.212 890.326L458.061 874.058L588.167 763.457L635.093 685.288L278.314 249.25L243.113 251.862C223.319 252.393 213.783 256.083 204.153 268.686L5.42746 528.767C-4.24335 541.424 -1.80007 555.529 2.52143 569.361L118.51 793.039L201.212 890.326Z" fill="#1F2433"/>
</svg>
